<?xml version="1.0" standalone="no"?>
<!DOCTYPE svg PUBLIC "-//W3C//DTD SVG 20010904//EN"
 "http://www.w3.org/TR/2001/REC-SVG-20010904/DTD/svg10.dtd">
<svg version="1.0" xmlns="http://www.w3.org/2000/svg"
 width="680.000000pt" height="680.000000pt" viewBox="0 0 680.000000 680.000000"
 preserveAspectRatio="xMidYMid meet">
<metadata>
Created by potrace 1.14, written by Peter Selinger 2001-2017
</metadata>
<g transform="translate(0.000000,680.000000) scale(0.100000,-0.100000)"
fill="#000000" stroke="none">
<path d="M2493 4628 c-2 -29 -5 -81 -8 -114 l-5 -62 52 -57 c29 -32 72 -79 95
-104 l43 -46 -1 -82 -1 -82 -36 15 c-153 66 -291 84 -449 60 -281 -44 -481
-253 -549 -576 -24 -115 -25 -363 -1 -473 49 -228 171 -407 342 -502 110 -62
190 -80 355 -80 149 0 210 14 325 73 99 51 218 172 266 272 38 78 76 190 85
250 3 19 8 46 11 60 3 14 7 289 9 611 l5 586 -33 35 c-18 19 -81 86 -139 149
l-107 114 -128 3 -129 2 -2 -52z m-67 -739 c99 -50 162 -148 205 -316 34 -135
31 -359 -7 -489 -52 -183 -159 -291 -296 -300 -148 -9 -257 79 -323 260 -34
93 -39 126 -39 266 -1 153 9 230 40 322 53 157 140 252 251 276 56 12 120 5
169 -19z"/>
<path d="M3315 4577 c-71 -39 -103 -135 -71 -211 27 -65 81 -99 154 -97 57 2
96 23 130 70 101 139 -63 322 -213 238z"/>
<path d="M4325 4210 c-44 -9 -100 -25 -125 -35 -52 -22 -158 -92 -198 -131
-105 -105 -189 -284 -209 -447 -12 -94 -8 -346 7 -397 7 -25 14 -56 17 -70 7
-39 61 -163 94 -216 55 -87 149 -174 249 -228 146 -79 390 -95 569 -37 50 16
92 27 93 25 2 -1 3 -28 1 -59 -2 -60 -6 -67 -137 -210 l-45 -50 6 -100 c3 -55
7 -107 8 -115 1 -12 25 -16 130 -18 112 -2 130 0 144 15 9 10 52 59 96 108 44
49 97 108 117 130 37 40 38 41 38 125 0 154 10 773 14 895 4 106 -2 192 -19
263 -3 12 -7 30 -9 41 -12 52 -72 182 -112 243 -87 131 -239 232 -409 273 -62
15 -239 13 -320 -5z m297 -265 c64 -42 94 -77 131 -147 60 -114 81 -214 79
-386 -2 -248 -71 -418 -203 -502 -64 -42 -159 -52 -238 -25 -65 21 -145 98
-183 175 -79 159 -94 401 -38 608 35 126 87 208 165 262 61 41 93 50 172 46
59 -2 80 -8 115 -31z"/>
<path d="M3220 3410 l0 -810 178 0 179 0 0 810 0 810 -178 0 -179 0 0 -810z"/>
<path d="M5960 4189 c-19 -3 -50 -9 -68 -13 -126 -25 -283 -134 -365 -254 -63
-93 -122 -262 -135 -387 -9 -89 -8 -241 2 -325 21 -171 120 -375 226 -466 14
-12 38 -33 54 -47 46 -40 152 -89 233 -107 109 -26 278 -26 376 -1 124 32 200
76 293 166 71 70 88 95 132 185 43 91 55 125 69 200 1 8 6 33 10 55 4 22 8
110 7 195 -1 191 -22 288 -94 437 -88 180 -235 300 -430 351 -77 21 -234 26
-310 11z m253 -272 c90 -53 153 -150 193 -302 26 -96 26 -370 0 -464 -61 -223
-185 -336 -355 -323 -191 15 -327 257 -316 558 6 139 16 204 44 287 46 132
125 228 214 261 63 23 164 16 220 -17z"/>
<path d="M620 4162 c-248 -23 -455 -182 -550 -422 -27 -67 -48 -144 -58 -213
-8 -59 -8 -314 0 -367 45 -283 197 -497 423 -593 103 -44 307 -58 440 -30 266
55 454 264 518 577 19 94 19 341 0 441 -17 93 -65 219 -114 302 -106 180 -325
304 -544 307 -44 1 -96 0 -115 -2z m193 -271 c94 -41 183 -175 211 -312 3 -13
9 -46 15 -74 12 -59 7 -277 -7 -355 -24 -123 -67 -216 -133 -282 -62 -62 -107
-80 -199 -82 -90 -1 -131 16 -198 83 -97 95 -146 258 -145 476 0 115 7 173 33
260 71 247 247 366 423 286z"/>
</g>
</svg>
